General
Complete name                            : 
Format                                   : MPEG-4
Commercial name                          : XDCAM HD422
Format profile                           : QuickTime
Codec ID                                 : qt  
File size                                : 59.8 MiB
Duration                                 : 10s 0ms
Overall bit rate                         : 50.2 Mbps
Writing application                      : Lavf57.46.100

Video
ID                                       : 1
Format                                   : MPEG Video
Commercial name                          : XDCAM HD422
Format version                           : Version 2
Format profile                           : 4:2:2@High
Format settings, BVOP                    : Yes
Format settings, Matrix                  : Custom
Format settings, GOP                     : M=3, N=15
Format settings, picture structure       : Frame
Codec ID                                 : xd5b
Duration                                 : 9s 543ms
Bit rate                                 : 50.0 Mbps
Width                                    : 1 920 pixels
Height                                   : 1 080 pixels
Display aspect ratio                     : 16:9
Frame rate mode                          : Constant
Frame rate                               : 29.970 fps
Color space                              : YUV
Chroma subsampling                       : 4:2:2
Bit depth                                : 8 bits
Scan type                                : Interlaced
Scan type, store method                  : Interleaved fields
Scan order                               : Top Field First
Compression mode                         : Lossy
Bits/(Pixel*Frame)                       : 0.805
Stream size                              : 57.1 MiB (95%)
Language                                 : English

Audio #1
ID                                       : 2
Format                                   : PCM
Format settings, Endianness              : Big
Format settings, Sign                    : Unsigned
Codec ID                                 : in24
Duration                                 : 10s 0ms
Bit rate mode                            : Constant
Bit rate                                 : 1 152 Kbps
Channel(s)                               : 1 channel
Sampling rate                            : 48.0 KHz
Bit depth                                : 24 bits
Stream size                              : 1.37 MiB (2%)
Language                                 : English

Audio #2
ID                                       : 3
Format                                   : PCM
Format settings, Endianness              : Big
Format settings, Sign                    : Unsigned
Codec ID                                 : in24
Duration                                 : 10s 0ms
Bit rate mode                            : Constant
Bit rate                                 : 1 152 Kbps
Channel(s)                               : 1 channel
Sampling rate                            : 48.0 KHz
Bit depth                                : 24 bits
Stream size                              : 1.37 MiB (2%)
Language                                 : English

Other
ID                                       : 4
Type                                     : Time code
Format                                   : QuickTime TC
Duration                                 : 9s 543ms
Time code of first frame                 : 04:00:00:10
Time code, striped                       : Yes
Language                                 : English


